<svg width="459pt" height="265pt"
 viewBox="0.00 0.00 459.00 265.00" xmlns="http://www.w3.org/2000/svg" xmlns:xlink="http://www.w3.org/1999/xlink">
<g id="graph0" class="graph" transform="scale(1 1) rotate(0) translate(4 261)">
<title>log_n_vector</title>
<polygon fill="white" stroke="transparent" points="-4,4 -4,-261 455,-261 455,4 -4,4"/>
<!-- v -->
<g id="node1" class="node">
<title>v</title>
<polygon fill="none" stroke="black" points="0,-71 0,-186 54,-186 54,-71 0,-71"/>
<text text-anchor="middle" x="27" y="-170.8" font-family="Times,serif" font-size="14.00">v[0]</text>
<polyline fill="none" stroke="black" points="0,-163 54,-163 "/>
<text text-anchor="middle" x="27" y="-147.8" font-family="Times,serif" font-size="14.00">v[1]</text>
<polyline fill="none" stroke="black" points="0,-140 54,-140 "/>
<text text-anchor="middle" x="27" y="-124.8" font-family="Times,serif" font-size="14.00">v[2]</text>
<polyline fill="none" stroke="black" points="0,-117 54,-117 "/>
<text text-anchor="middle" x="27" y="-101.8" font-family="Times,serif" font-size="14.00">...</text>
<polyline fill="none" stroke="black" points="0,-94 54,-94 "/>
<text text-anchor="middle" x="27" y="-78.8" font-family="Times,serif" font-size="14.00">v[x]</text>
</g>
<!-- v0 -->
<g id="node2" class="node">
<title>v0</title>
<polygon fill="none" stroke="black" points="243,-220.5 243,-256.5 298,-256.5 298,-220.5 243,-220.5"/>
<text text-anchor="middle" x="270.5" y="-234.8" font-family="Times,serif" font-size="14.00">v[0][0]</text>
</g>
<!-- v&#45;&gt;v0 -->
<g id="edge1" class="edge">
<title>v:i0&#45;&gt;v0:left</title>
<path fill="none" stroke="black" d="M54,-174.5C76.94,-174.5 69.58,-201.03 90,-211.5 135.23,-234.69 194.65,-239.42 232.72,-239.72"/>
<polygon fill="black" stroke="black" points="232.87,-243.22 242.86,-239.7 232.85,-236.22 232.87,-243.22"/>
</g>
<!-- v1 -->
<g id="node3" class="node">
<title>v1</title>
<polygon fill="none" stroke="black" points="215.5,-165.5 215.5,-201.5 325.5,-201.5 325.5,-165.5 215.5,-165.5"/>
<text text-anchor="middle" x="243" y="-179.8" font-family="Times,serif" font-size="14.00">v[1][0]</text>
<polyline fill="none" stroke="black" points="270.5,-165.5 270.5,-201.5 "/>
<text text-anchor="middle" x="298" y="-179.8" font-family="Times,serif" font-size="14.00">v[1][1]</text>
</g>
<!-- v&#45;&gt;v1 -->
<g id="edge2" class="edge">
<title>v:i1&#45;&gt;v1:left</title>
<path fill="none" stroke="black" d="M54,-151.5C87.31,-151.5 163.75,-178.35 204.31,-182.86"/>
<polygon fill="black" stroke="black" points="204.3,-186.37 214.5,-183.5 204.74,-179.38 204.3,-186.37"/>
</g>
<!-- v2 -->
<g id="node4" class="node">
<title>v2</title>
<polygon fill="none" stroke="black" points="160.5,-110.5 160.5,-146.5 380.5,-146.5 380.5,-110.5 160.5,-110.5"/>
<text text-anchor="middle" x="188" y="-124.8" font-family="Times,serif" font-size="14.00">v[2][0]</text>
<polyline fill="none" stroke="black" points="215.5,-110.5 215.5,-146.5 "/>
<text text-anchor="middle" x="243" y="-124.8" font-family="Times,serif" font-size="14.00">v[2][1]</text>
<polyline fill="none" stroke="black" points="270.5,-110.5 270.5,-146.5 "/>
<text text-anchor="middle" x="298" y="-124.8" font-family="Times,serif" font-size="14.00">v[2][2]</text>
<polyline fill="none" stroke="black" points="325.5,-110.5 325.5,-146.5 "/>
<text text-anchor="middle" x="353" y="-124.8" font-family="Times,serif" font-size="14.00">v[2][3]</text>
</g>
<!-- v&#45;&gt;v2 -->
<g id="edge3" class="edge">
<title>v:i2&#45;&gt;v2:left</title>
<path fill="none" stroke="black" d="M54,-128.5C97.23,-128.5 110.56,-128.5 149.12,-128.5"/>
<polygon fill="black" stroke="black" points="149.5,-132 159.5,-128.5 149.5,-125 149.5,-132"/>
</g>
<!-- v3 -->
<!-- v&#45;&gt;v3 -->
<!-- vx -->
<g id="node6" class="node">
<title>vx</title>
<polygon fill="none" stroke="black" points="90,-0.5 90,-36.5 451,-36.5 451,-0.5 90,-0.5"/>
<text text-anchor="middle" x="117.5" y="-14.8" font-family="Times,serif" font-size="14.00">v[x][0]</text>
<polyline fill="none" stroke="black" points="145,-0.5 145,-36.5 "/>
<text text-anchor="middle" x="172.5" y="-14.8" font-family="Times,serif" font-size="14.00">v[x][1]</text>
<polyline fill="none" stroke="black" points="200,-0.5 200,-36.5 "/>
<text text-anchor="middle" x="227.5" y="-14.8" font-family="Times,serif" font-size="14.00">v[x][2]</text>
<polyline fill="none" stroke="black" points="255,-0.5 255,-36.5 "/>
<text text-anchor="middle" x="282.5" y="-14.8" font-family="Times,serif" font-size="14.00">v[x][3]</text>
<polyline fill="none" stroke="black" points="310,-0.5 310,-36.5 "/>
<text text-anchor="middle" x="324" y="-14.8" font-family="Times,serif" font-size="14.00">...</text>
<polyline fill="none" stroke="black" points="338,-0.5 338,-36.5 "/>
<text text-anchor="middle" x="394.5" y="-14.8" font-family="Times,serif" font-size="14.00">v[x][(1 &lt;&lt; x) &#45; 1]</text>
</g>
<!-- v&#45;&gt;vx -->
<g id="edge5" class="edge">
<title>v:ix&#45;&gt;vx:left</title>
<path fill="none" stroke="black" d="M54,-82.5C82.3,-82.5 64.05,-34.37 79.98,-21.59"/>
<polygon fill="black" stroke="black" points="81.47,-24.79 90,-18.5 79.41,-18.1 81.47,-24.79"/>
</g>
</g>
</svg>
