<?xml version="1.0" encoding="UTF-8" standalone="no"?>
<!DOCTYPE svg PUBLIC "-//W3C//DTD SVG 1.1//EN"
 "http://www.w3.org/Graphics/SVG/1.1/DTD/svg11.dtd">
<!-- Generated by graphviz version 2.43.0 (0)
 -->
<!-- Title: index_diagram Pages: 1 -->
<svg width="642pt" height="265pt"
 viewBox="0.00 0.00 642.00 265.00" xmlns="http://www.w3.org/2000/svg" xmlns:xlink="http://www.w3.org/1999/xlink">
<g id="graph0" class="graph" transform="scale(1 1) rotate(0) translate(4 261)">
<title>index_diagram</title>
<polygon fill="white" stroke="transparent" points="-4,4 -4,-261 638,-261 638,4 -4,4"/>
<!-- arrays_ -->
<g id="node1" class="node">
<title>arrays_</title>
<polygon fill="none" stroke="black" points="0,-71 0,-186 72,-186 72,-71 0,-71"/>
<text text-anchor="middle" x="36" y="-170.8" font-family="Times,serif" font-size="14.00">arrays_[0]</text>
<polyline fill="none" stroke="black" points="0,-163 72,-163 "/>
<text text-anchor="middle" x="36" y="-147.8" font-family="Times,serif" font-size="14.00">arrays_[1]</text>
<polyline fill="none" stroke="black" points="0,-140 72,-140 "/>
<text text-anchor="middle" x="36" y="-124.8" font-family="Times,serif" font-size="14.00">arrays_[2]</text>
<polyline fill="none" stroke="black" points="0,-117 72,-117 "/>
<text text-anchor="middle" x="36" y="-101.8" font-family="Times,serif" font-size="14.00">...</text>
<polyline fill="none" stroke="black" points="0,-94 72,-94 "/>
<text text-anchor="middle" x="36" y="-78.8" font-family="Times,serif" font-size="14.00">arrays_[x]</text>
</g>
<!-- arrays_0 -->
<g id="node2" class="node">
<title>arrays_0</title>
<polygon fill="none" stroke="black" points="327,-220.5 327,-256.5 415,-256.5 415,-220.5 327,-220.5"/>
<text text-anchor="middle" x="371" y="-234.8" font-family="Times,serif" font-size="14.00">arrays_[0][0]</text>
</g>
<!-- arrays_&#45;&gt;arrays_0 -->
<g id="edge1" class="edge">
<title>arrays_:i0&#45;&gt;arrays_0:left</title>
<path fill="none" stroke="black" d="M72,-174.5C94.94,-174.5 87.35,-201.51 108,-211.5 174.37,-243.62 261.01,-246.06 316.34,-243.42"/>
<polygon fill="black" stroke="black" points="316.85,-246.9 326.64,-242.85 316.46,-239.91 316.85,-246.9"/>
</g>
<!-- arrays_1 -->
<g id="node3" class="node">
<title>arrays_1</title>
<polygon fill="none" stroke="black" points="283,-165.5 283,-201.5 459,-201.5 459,-165.5 283,-165.5"/>
<text text-anchor="middle" x="327" y="-179.8" font-family="Times,serif" font-size="14.00">arrays_[1][0]</text>
<polyline fill="none" stroke="black" points="371,-165.5 371,-201.5 "/>
<text text-anchor="middle" x="415" y="-179.8" font-family="Times,serif" font-size="14.00">arrays_[1][1]</text>
</g>
<!-- arrays_&#45;&gt;arrays_1 -->
<g id="edge2" class="edge">
<title>arrays_:i1&#45;&gt;arrays_1:left</title>
<path fill="none" stroke="black" d="M72,-151.5C77.19,-151.5 230.92,-176.22 272.08,-182.21"/>
<polygon fill="black" stroke="black" points="271.63,-185.68 282,-183.5 272.54,-178.74 271.63,-185.68"/>
</g>
<!-- arrays_2 -->
<g id="node4" class="node">
<title>arrays_2</title>
<polygon fill="none" stroke="black" points="195,-110.5 195,-146.5 547,-146.5 547,-110.5 195,-110.5"/>
<text text-anchor="middle" x="239" y="-124.8" font-family="Times,serif" font-size="14.00">arrays_[2][0]</text>
<polyline fill="none" stroke="black" points="283,-110.5 283,-146.5 "/>
<text text-anchor="middle" x="327" y="-124.8" font-family="Times,serif" font-size="14.00">arrays_[2][1]</text>
<polyline fill="none" stroke="black" points="371,-110.5 371,-146.5 "/>
<text text-anchor="middle" x="415" y="-124.8" font-family="Times,serif" font-size="14.00">arrays_[2][2]</text>
<polyline fill="none" stroke="black" points="459,-110.5 459,-146.5 "/>
<text text-anchor="middle" x="503" y="-124.8" font-family="Times,serif" font-size="14.00">arrays_[2][3]</text>
</g>
<!-- arrays_&#45;&gt;arrays_2 -->
<g id="edge3" class="edge">
<title>arrays_:i2&#45;&gt;arrays_2:left</title>
<path fill="none" stroke="black" d="M72,-128.5C122.62,-128.5 137.8,-128.5 183.71,-128.5"/>
<polygon fill="black" stroke="black" points="184,-132 194,-128.5 184,-125 184,-132"/>
</g>
<!-- arrays_3 -->
<!-- arrays_&#45;&gt;arrays_3 -->
<!-- arrays_x -->
<g id="node6" class="node">
<title>arrays_x</title>
<polygon fill="none" stroke="black" points="108,-0.5 108,-36.5 634,-36.5 634,-0.5 108,-0.5"/>
<text text-anchor="middle" x="152" y="-14.8" font-family="Times,serif" font-size="14.00">arrays_[x][0]</text>
<polyline fill="none" stroke="black" points="196,-0.5 196,-36.5 "/>
<text text-anchor="middle" x="240" y="-14.8" font-family="Times,serif" font-size="14.00">arrays_[x][1]</text>
<polyline fill="none" stroke="black" points="284,-0.5 284,-36.5 "/>
<text text-anchor="middle" x="328" y="-14.8" font-family="Times,serif" font-size="14.00">arrays_[x][2]</text>
<polyline fill="none" stroke="black" points="372,-0.5 372,-36.5 "/>
<text text-anchor="middle" x="416" y="-14.8" font-family="Times,serif" font-size="14.00">arrays_[x][3]</text>
<polyline fill="none" stroke="black" points="460,-0.5 460,-36.5 "/>
<text text-anchor="middle" x="474" y="-14.8" font-family="Times,serif" font-size="14.00">...</text>
<polyline fill="none" stroke="black" points="488,-0.5 488,-36.5 "/>
<text text-anchor="middle" x="561" y="-14.8" font-family="Times,serif" font-size="14.00">arrays_[x][(1 &lt;&lt; x) &#45; 1]</text>
</g>
<!-- arrays_&#45;&gt;arrays_x -->
<g id="edge5" class="edge">
<title>arrays_:ix&#45;&gt;arrays_x:left</title>
<path fill="none" stroke="black" d="M72,-82.5C100.3,-82.5 82.05,-34.37 97.98,-21.59"/>
<polygon fill="black" stroke="black" points="99.47,-24.79 108,-18.5 97.41,-18.1 99.47,-24.79"/>
</g>
</g>
</svg>
