<?xml version="1.0" encoding="UTF-8" standalone="no"?>
<!DOCTYPE svg PUBLIC "-//W3C//DTD SVG 1.1//EN"
 "http://www.w3.org/Graphics/SVG/1.1/DTD/svg11.dtd">
<!-- Generated by graphviz version 2.43.0 (0)
 -->
<!-- Title: index_diagram Pages: 1 -->
<svg width="624pt" height="265pt"
 viewBox="0.00 0.00 624.00 265.00" xmlns="http://www.w3.org/2000/svg" xmlns:xlink="http://www.w3.org/1999/xlink">
<g id="graph0" class="graph" transform="scale(1 1) rotate(0) translate(4 261)">
<title>index_diagram</title>
<polygon fill="white" stroke="transparent" points="-4,4 -4,-261 620,-261 620,4 -4,4"/>
<!-- v -->
<g id="node1" class="node">
<title>v</title>
<polygon fill="none" stroke="black" points="0,-71 0,-186 54,-186 54,-71 0,-71"/>
<text text-anchor="middle" x="27" y="-170.8" font-family="Times,serif" font-size="14.00">v[0]</text>
<polyline fill="none" stroke="black" points="0,-163 54,-163 "/>
<text text-anchor="middle" x="27" y="-147.8" font-family="Times,serif" font-size="14.00">v[1]</text>
<polyline fill="none" stroke="black" points="0,-140 54,-140 "/>
<text text-anchor="middle" x="27" y="-124.8" font-family="Times,serif" font-size="14.00">v[2]</text>
<polyline fill="none" stroke="black" points="0,-117 54,-117 "/>
<text text-anchor="middle" x="27" y="-101.8" font-family="Times,serif" font-size="14.00">...</text>
<polyline fill="none" stroke="black" points="0,-94 54,-94 "/>
<text text-anchor="middle" x="27" y="-78.8" font-family="Times,serif" font-size="14.00">v[x]</text>
</g>
<!-- v0 -->
<g id="node2" class="node">
<title>v0</title>
<polygon fill="none" stroke="black" points="309,-220.5 309,-256.5 397,-256.5 397,-220.5 309,-220.5"/>
<text text-anchor="middle" x="353" y="-234.8" font-family="Times,serif" font-size="14.00">arrays_[0][0]</text>
</g>
<!-- v&#45;&gt;v0 -->
<g id="edge1" class="edge">
<title>v:i0&#45;&gt;v0:left</title>
<path fill="none" stroke="black" d="M54,-174.5C76.94,-174.5 69.35,-201.51 90,-211.5 156.37,-243.62 243.01,-246.06 298.34,-243.42"/>
<polygon fill="black" stroke="black" points="298.85,-246.9 308.64,-242.85 298.46,-239.91 298.85,-246.9"/>
</g>
<!-- v1 -->
<g id="node3" class="node">
<title>v1</title>
<polygon fill="none" stroke="black" points="265,-165.5 265,-201.5 441,-201.5 441,-165.5 265,-165.5"/>
<text text-anchor="middle" x="309" y="-179.8" font-family="Times,serif" font-size="14.00">arrays_[1][0]</text>
<polyline fill="none" stroke="black" points="353,-165.5 353,-201.5 "/>
<text text-anchor="middle" x="397" y="-179.8" font-family="Times,serif" font-size="14.00">arrays_[1][1]</text>
</g>
<!-- v&#45;&gt;v1 -->
<g id="edge2" class="edge">
<title>v:i1&#45;&gt;v1:left</title>
<path fill="none" stroke="black" d="M54,-151.5C59.19,-151.5 212.92,-176.22 254.08,-182.21"/>
<polygon fill="black" stroke="black" points="253.63,-185.68 264,-183.5 254.54,-178.74 253.63,-185.68"/>
</g>
<!-- v2 -->
<g id="node4" class="node">
<title>v2</title>
<polygon fill="none" stroke="black" points="177,-110.5 177,-146.5 529,-146.5 529,-110.5 177,-110.5"/>
<text text-anchor="middle" x="221" y="-124.8" font-family="Times,serif" font-size="14.00">arrays_[2][0]</text>
<polyline fill="none" stroke="black" points="265,-110.5 265,-146.5 "/>
<text text-anchor="middle" x="309" y="-124.8" font-family="Times,serif" font-size="14.00">arrays_[2][1]</text>
<polyline fill="none" stroke="black" points="353,-110.5 353,-146.5 "/>
<text text-anchor="middle" x="397" y="-124.8" font-family="Times,serif" font-size="14.00">arrays_[2][2]</text>
<polyline fill="none" stroke="black" points="441,-110.5 441,-146.5 "/>
<text text-anchor="middle" x="485" y="-124.8" font-family="Times,serif" font-size="14.00">arrays_[2][3]</text>
</g>
<!-- v&#45;&gt;v2 -->
<g id="edge3" class="edge">
<title>v:i2&#45;&gt;v2:left</title>
<path fill="none" stroke="black" d="M54,-128.5C104.62,-128.5 119.8,-128.5 165.71,-128.5"/>
<polygon fill="black" stroke="black" points="166,-132 176,-128.5 166,-125 166,-132"/>
</g>
<!-- v3 -->
<!-- v&#45;&gt;v3 -->
<!-- vx -->
<g id="node6" class="node">
<title>vx</title>
<polygon fill="none" stroke="black" points="90,-0.5 90,-36.5 616,-36.5 616,-0.5 90,-0.5"/>
<text text-anchor="middle" x="134" y="-14.8" font-family="Times,serif" font-size="14.00">arrays_[x][0]</text>
<polyline fill="none" stroke="black" points="178,-0.5 178,-36.5 "/>
<text text-anchor="middle" x="222" y="-14.8" font-family="Times,serif" font-size="14.00">arrays_[x][1]</text>
<polyline fill="none" stroke="black" points="266,-0.5 266,-36.5 "/>
<text text-anchor="middle" x="310" y="-14.8" font-family="Times,serif" font-size="14.00">arrays_[x][2]</text>
<polyline fill="none" stroke="black" points="354,-0.5 354,-36.5 "/>
<text text-anchor="middle" x="398" y="-14.8" font-family="Times,serif" font-size="14.00">arrays_[x][3]</text>
<polyline fill="none" stroke="black" points="442,-0.5 442,-36.5 "/>
<text text-anchor="middle" x="456" y="-14.8" font-family="Times,serif" font-size="14.00">...</text>
<polyline fill="none" stroke="black" points="470,-0.5 470,-36.5 "/>
<text text-anchor="middle" x="543" y="-14.8" font-family="Times,serif" font-size="14.00">arrays_[x][(1 &lt;&lt; x) &#45; 1]</text>
</g>
<!-- v&#45;&gt;vx -->
<g id="edge5" class="edge">
<title>v:ix&#45;&gt;vx:left</title>
<path fill="none" stroke="black" d="M54,-82.5C82.3,-82.5 64.05,-34.37 79.98,-21.59"/>
<polygon fill="black" stroke="black" points="81.47,-24.79 90,-18.5 79.41,-18.1 81.47,-24.79"/>
</g>
</g>
</svg>
